<?xml version="1.0" encoding="UTF-8"?>
<svg id="Layer_1" data-name="Layer 1" xmlns="http://www.w3.org/2000/svg" width="800" height="800" xmlns:xlink="http://www.w3.org/1999/xlink" viewBox="0 0 800 800">
  <defs>
    <clipPath id="clippath">
      <rect width="800" height="800" fill="none"/>
    </clipPath>
    <clipPath id="clippath-1">
      <rect width="800" height="800" fill="none"/>
    </clipPath>
  </defs>
  <g id="DM_Monogram_White" data-name="DM Monogram_White">
    <g clip-path="url(#clippath)">
      <g clip-path="url(#clippath-1)">
        <path d="M627.9,627.27c-28.52,0-57.04-.21-85.56.15-6.82.08-8.52-2.57-7.86-8.59.56-5.12-2.29-11.87,7.55-11.24,6.04.39,12.41-.08,18.2-1.7,3.18-.89,5.81-4.73,7.98-7.75.99-1.38.29-3.99.29-6.05,0-78.37,0-156.74,0-235.1v-8.11l-2.98-.46c-5.39,14.16-10.78,28.31-16.16,42.47-19.09,50.21-38.19,100.41-57.27,150.63-9.58,25.23-24.22,61.92-33.69,87.19-.94.96-11.84.34-20.24.34,0,0-2.48-6.52-3.51-9.27-9.04-24.07-15.87-48.77-24.84-72.87-22.36-60.12-44.76-120.23-67.12-180.35-1.65-4.44-3.2-8.91-4.8-13.37-.65.02-1.31.05-1.97.08-.27,1.97-.78,3.94-.78,5.91-.04,77.34.63,154.53.68,231.87,0,8.93,5.96,12.84,18.58,13.95,5.04.45,11.72.97,17.07.73-.16,6.22.36,25.29-.1,25.29h-16.81c-23.64.01-62.16.01-85.8,0,0,0,.1-3.89.16-14.06.02-2.76-.01-7.96.13-11.08,7.93.12,18.41-1.2,25.63-2.47,8.98-1.58,14.79-5.02,14.79-14.37.01-77.85,0-155.71,0-233.56,0-13.67-.53-14.54-13.6-17.09-4.47-.87-9.15-.84-13.74-.95-6.62-.16-10.07-2.27-9.92-9.99.14-7.04,1.45-9.86,9.28-9.71,26.71.49,53.44.19,80.16.19h6.43c15.45,49.3,35.09,95.94,52.45,143.39,10.41,28.45,21.08,56.8,31.66,85.18,1.3,3.5,2.66,6.64,4.67,10.73,16.88-38.94,32.64-78.56,47.25-118.14,14.67-39.74,32.91-78.24,43.61-120.75.87-.06,3.34-.39,5.82-.39,27.24-.04,54.48.06,81.71-.09,5.34-.03,8.94.53,8.35,7.33-.5,5.81,1.25,12.3-8.13,12.31-5.33,0-10.64,1.25-15.98,1.36-7.43.15-9.59,4.64-9.96,10.94-.11,1.79-.03,3.6-.03,5.39,0,78.37,0,156.74,0,235.11,0,13.52,2.07,15.5,15.24,16.05,5.83.24,11.62,1.31,17.27,1.99.43.59.94.97.99,1.41q2.27,17.53-15.16,17.53M295.62,516.3v-24.37c-5.98.46-12.17.7-18.59.7h-41.28V190.38h41.28c47.91,0,83.55,12.45,106.92,37.34,23.34,24.91,35.02,62.75,35.02,113.53,0,22.13-2.24,41.81-6.7,59.05,1.14,2.96,2.27,5.93,3.41,8.88,5.95,15.49,12.1,31.5,17.91,47.38.15.42.31.84.46,1.26,8.49-10.35,15.59-21.71,21.25-34.12,10.95-24.02,16.44-51.51,16.44-82.44,0-55.57-16.83-98.55-50.47-129.08-33.64-30.48-81.04-45.74-142.2-45.74h-128.71v20.89l29.56,3.06,8.93,7.4v287.48l-8.93,7.38-29.56,2.55v21.4h128.71c5.74,0,11.21-.11,16.55-.28M349.35,483.16c.04,8.98.08,18.05.12,27.15,1.79-.4,3.59-.8,5.29-1.25,8.08-2.1,15.79-4.82,23.17-8.08-3.9-10.49-7.89-21.21-11.62-31.21-5.26,3.56-10.92,6.71-16.98,9.44,0,1.31.01,2.64.02,3.95" fill="#fff"/>
      </g>
    </g>
  </g>
</svg>