<?xml version="1.0" encoding="UTF-8"?>
<svg id="Layer_1" data-name="Layer 1" xmlns="http://www.w3.org/2000/svg" width="429.62" height="82.12" viewBox="0 0 429.62 82.12">
  <g>
    <path d="M22.03,82.12c-4.3,0-8.1-1.17-11.39-3.52-3.3-2.34-5.89-5.82-7.79-10.43C.95,63.56,0,57.88,0,51.13s.89-11.95,2.68-16.58c1.78-4.63,4.34-8.22,7.66-10.76s7.3-3.81,11.93-3.81c3.74,0,7.03.81,9.88,2.43,2.85,1.62,5.23,3.91,7.16,6.87,1.92,2.96,3.31,6.42,4.15,10.39l-9.13.59c-.84-3.63-2.25-6.54-4.23-8.71-1.98-2.18-4.56-3.27-7.74-3.27-2.8,0-5.18.88-7.16,2.64-1.98,1.76-3.49,4.34-4.52,7.75-1.03,3.41-1.55,7.57-1.55,12.48s.53,8.98,1.59,12.35c1.06,3.38,2.61,5.95,4.64,7.71s4.51,2.64,7.41,2.64c2.57,0,4.77-.66,6.62-1.97,1.84-1.31,3.28-3.15,4.31-5.53,1.03-2.38,1.6-5.12,1.72-8.25h-13.06v-7.62h21.19v30.32h-7.12l-.42-13.65,2.26-.09c-.61,2.85-1.6,5.42-2.97,7.71-1.37,2.29-3.14,4.09-5.32,5.4-2.18,1.31-4.83,1.97-7.96,1.97v-.02Z" fill="#fff"/>
    <path d="M67.92,81.78c-4.19,0-7.83-.95-10.93-2.85s-5.5-4.61-7.2-8.12c-1.7-3.52-2.56-7.62-2.56-12.31s.85-8.76,2.56-12.23c1.7-3.46,4.07-6.17,7.12-8.12,3.04-1.95,6.63-2.93,10.76-2.93s7.45.94,10.47,2.81c3.01,1.87,5.37,4.55,7.07,8.04s2.56,7.69,2.56,12.6v2.34h-31.66c.28,4.25,1.46,7.47,3.56,9.68,2.09,2.2,4.87,3.31,8.33,3.31,2.62,0,4.8-.63,6.53-1.88s2.93-2.89,3.6-4.9l8.88.59c-1.29,4.25-3.59,7.63-6.91,10.18-3.32,2.54-7.38,3.81-12.18,3.81v-.02ZM56.11,54.23h22.53c-.33-3.8-1.49-6.62-3.48-8.46s-4.48-2.76-7.49-2.76-5.7.95-7.71,2.85c-2.01,1.9-3.29,4.69-3.85,8.38h0Z" fill="#fff"/>
    <path d="M92.46,80.78v-44.56h7.79l.25,11.64-.92-.67c.56-2.73,1.55-4.98,2.97-6.74s3.17-3.07,5.24-3.94c2.06-.87,4.27-1.3,6.62-1.3,3.35,0,6.11.74,8.29,2.22s3.82,3.49,4.94,6.03c1.12,2.54,1.68,5.4,1.68,8.59v28.73h-8.46v-26.55c0-3.85-.74-6.76-2.22-8.71-1.48-1.96-3.7-2.93-6.66-2.93-2.07,0-3.92.45-5.57,1.34s-2.97,2.22-3.98,3.98c-1,1.76-1.51,3.92-1.51,6.49v26.38h-8.46Z" fill="#fff"/>
    <path d="M127.97,80.78l17.42-59.46h11.39l17.42,59.46h-9.13l-13.99-50.34-13.99,50.34h-9.13.01ZM137.69,65.28l2.68-8.12h21.44l2.68,8.12h-26.8,0Z" fill="#fff"/>
    <path d="M170.85,80.78v-7.12h40.87v7.12h-40.87ZM171.68,43.34v-7.12h24.37v7.12h-24.37ZM187.77,29.77v-8.79h8.71v8.79h-8.71ZM188.27,80.78v-44.56h8.54v44.56h-8.54Z" fill="#fff"/>
    <path d="M.68,5.81v-1.88h10.52v1.88H.68ZM7.92,15.7c-1.19,0-2.08-.28-2.66-.83s-.87-1.4-.87-2.55V1.17h2.23v11.03c0,.55.13.95.39,1.21.26.27.64.4,1.16.4h3.03v1.88h-3.28Z" fill="#fff"/>
    <path d="M14.93,15.7V0h2.24v6.5l-.22-.09c.15-.63.4-1.15.75-1.56.35-.4.78-.7,1.28-.89s1.05-.29,1.66-.29c.83,0,1.52.19,2.09.56.57.38.99.9,1.28,1.57s.43,1.44.43,2.31v7.58h-2.23v-7.01c0-1.06-.19-1.84-.56-2.33s-.93-.74-1.67-.74c-.84,0-1.52.27-2.03.8s-.77,1.31-.77,2.34v6.94h-2.25Z" fill="#fff"/>
    <path d="M32.92,15.96c-1.1,0-2.06-.25-2.88-.75-.82-.5-1.45-1.21-1.9-2.15-.45-.93-.67-2.01-.67-3.25s.22-2.31.67-3.23,1.08-1.63,1.88-2.15c.8-.51,1.75-.77,2.84-.77s1.97.25,2.76.74c.8.49,1.42,1.2,1.87,2.12s.68,2.03.68,3.33v.62h-8.36c.08,1.12.39,1.97.94,2.55.55.58,1.29.87,2.2.87.69,0,1.27-.17,1.72-.5s.77-.76.95-1.29l2.34.16c-.34,1.12-.95,2.01-1.82,2.68-.88.67-1.95,1.01-3.22,1.01h0ZM29.81,8.69h5.95c-.09-1-.4-1.75-.92-2.23-.53-.48-1.18-.73-1.98-.73s-1.5.25-2.03.75c-.53.51-.87,1.24-1.02,2.21Z" fill="#fff"/>
  </g>
  <g>
    <path d="M230.82,46.99l-13.77-6.04v-3.64l13.77-6.04v2.98l-11.9,5.23v-.69l11.9,5.23v2.98h0Z" fill="#fff"/>
    <path d="M247.65,46.99l-13.77-6.04v-3.64l13.77-6.04v2.98l-11.9,5.23v-.69l11.9,5.23v2.98h0Z" fill="#fff"/>
    <path d="M251.22,47.82v-21.34h13.11v2.98h-9.95v6.22h9.59v2.89h-9.59v6.28h10.19v2.98h-13.35Z" fill="#fff"/>
    <path d="M266.82,47.82l5.83-8.2-5.53-7.78h3.43l3.91,5.71,3.82-5.71h3.49l-5.5,7.85,5.77,8.14h-3.46l-4.12-6.13-4.15,6.13h-3.49Z" fill="#fff"/>
    <path d="M291.47,48.19c-1.51,0-2.81-.34-3.92-1.02-1.11-.68-1.97-1.66-2.58-2.92s-.92-2.73-.92-4.42.31-3.15.92-4.39,1.46-2.21,2.56-2.91c1.09-.7,2.38-1.05,3.86-1.05s2.68.33,3.76,1.01c1.08.67,1.93,1.63,2.54,2.88s.92,2.76.92,4.52v.84h-11.36c.1,1.52.53,2.68,1.28,3.47s1.75,1.19,2.99,1.19c.94,0,1.72-.23,2.34-.68s1.05-1.04,1.29-1.76l3.18.21c-.46,1.52-1.29,2.74-2.48,3.65s-2.65,1.37-4.37,1.37h-.01ZM287.23,38.3h8.09c-.12-1.37-.54-2.38-1.25-3.04s-1.61-.99-2.69-.99-2.04.34-2.76,1.02-1.18,1.68-1.38,3.01h0Z" fill="#fff"/>
    <path d="M308.45,48.19c-1.48,0-2.79-.34-3.92-1.04-1.13-.69-2-1.66-2.61-2.91s-.91-2.72-.91-4.4.3-3.15.91-4.39,1.48-2.21,2.61-2.91c1.13-.7,2.44-1.05,3.92-1.05,1.22,0,2.31.23,3.27.68s1.75,1.11,2.38,1.97c.62.86,1.03,1.89,1.23,3.1l-3.1.21c-.24-1.02-.69-1.8-1.35-2.34s-1.46-.81-2.41-.81c-1.34,0-2.4.49-3.17,1.48-.77.99-1.16,2.35-1.16,4.07s.39,3.08,1.16,4.07,1.83,1.49,3.17,1.49c.96,0,1.79-.29,2.48-.86s1.15-1.42,1.37-2.54l3.1.18c-.2,1.22-.62,2.28-1.26,3.17s-1.45,1.59-2.42,2.09-2.07.75-3.29.75h0Z" fill="#fff"/>
    <path d="M318.03,46.99v-2.98l11.9-5.23v.69l-11.9-5.23v-2.98l13.77,6.04v3.64l-13.77,6.04h0Z" fill="#fff"/>
    <path d="M334.86,46.99v-2.98l11.9-5.23v.69l-11.9-5.23v-2.98l13.77,6.04v3.64l-13.77,6.04h0Z" fill="#fff"/>
    <path d="M224.91,78.35l-4.69-19.53.42-.04v22.87h-3.88v-27.3h5.38l5.07,20.72h-1.54l5.07-20.72h5.38v27.3h-3.88v-22.87l.42.04-4.69,19.53h-3.07,0Z" fill="#fff"/>
    <path d="M245.98,82.12c-1.28,0-2.43-.23-3.46-.69-1.02-.46-1.84-1.11-2.44-1.96s-.9-1.83-.9-2.96c0-1.74.53-3.1,1.6-4.07,1.06-.97,2.67-1.67,4.83-2.08l6.61-1.38c0-1.59-.34-2.78-1.04-3.58s-1.73-1.19-3.12-1.19c-1.28,0-2.28.29-3,.88s-1.2,1.41-1.46,2.46l-4.07-.27c.38-1.95,1.32-3.52,2.81-4.73,1.49-1.2,3.4-1.81,5.73-1.81,2.61,0,4.61.74,5.98,2.23,1.37,1.49,2.06,3.54,2.06,6.15v8.07c0,.46.1.79.31.98.2.19.5.29.88.29h1.15v3.19c-.15.02-.41.05-.75.08s-.69.04-1.02.04c-.92,0-1.71-.16-2.35-.46-.64-.31-1.12-.79-1.44-1.44-.32-.66-.51-1.48-.56-2.48h.61c-.15.9-.55,1.71-1.19,2.42-.64.72-1.46,1.28-2.46,1.69s-2.1.61-3.31.61h0ZM246.55,78.93c1.23,0,2.27-.22,3.12-.65.84-.44,1.48-1.05,1.9-1.85s.63-1.73.63-2.81v-1.58l-5.69,1.15c-1.23.23-2.09.59-2.58,1.08-.49.49-.73,1.13-.73,1.92,0,.85.29,1.51.88,2s1.41.73,2.46.73h0Z" fill="#fff"/>
    <path d="M268.27,82.12c-1.82,0-3.38-.31-4.69-.92-1.31-.62-2.32-1.44-3.04-2.48s-1.13-2.2-1.23-3.48l3.96-.23c.2,1.1.72,1.98,1.54,2.63.82.65,1.98.98,3.5.98,1.41,0,2.48-.19,3.23-.58.74-.39,1.11-.99,1.11-1.81,0-.52-.13-.94-.38-1.29-.26-.34-.74-.64-1.44-.88s-1.73-.49-3.09-.75c-2.03-.38-3.61-.84-4.75-1.36-1.14-.53-1.96-1.19-2.44-2s-.73-1.79-.73-2.94.3-2.24.9-3.19,1.49-1.7,2.67-2.25c1.18-.55,2.64-.83,4.38-.83s3.32.31,4.5.94c1.18.63,2.1,1.44,2.77,2.44.67,1,1.09,2.09,1.27,3.27l-3.96.23c-.15-.67-.42-1.25-.81-1.75-.39-.5-.9-.9-1.54-1.19-.64-.3-1.38-.44-2.23-.44-1.36,0-2.36.27-3,.81s-.96,1.19-.96,1.96c0,.61.15,1.11.46,1.48s.82.68,1.54.92c.72.25,1.69.48,2.92.71,2.08.33,3.68.76,4.81,1.29s1.92,1.17,2.39,1.94c.46.77.69,1.72.69,2.84,0,1.23-.35,2.29-1.06,3.17s-1.68,1.56-2.92,2.04c-1.25.47-2.7.71-4.37.71h0Z" fill="#fff"/>
    <path d="M276.73,64.47v-3.27h18.3v3.27h-18.3ZM289.34,81.66c-2.08,0-3.62-.48-4.63-1.44s-1.52-2.44-1.52-4.44v-19.37h3.88v19.18c0,.95.22,1.65.67,2.12.45.46,1.12.69,2.02.69h5.27v3.27h-5.69Z" fill="#fff"/>
    <path d="M305.91,82.12c-1.92,0-3.59-.44-5.02-1.31s-2.53-2.12-3.31-3.73-1.17-3.5-1.17-5.65.39-4.02,1.17-5.61,1.87-2.83,3.27-3.73c1.4-.89,3.04-1.34,4.94-1.34s3.42.43,4.81,1.29c1.39.86,2.47,2.09,3.25,3.69s1.17,3.53,1.17,5.78v1.08h-14.53c.13,1.95.67,3.43,1.63,4.44s2.24,1.52,3.82,1.52c1.2,0,2.2-.29,3-.86s1.34-1.33,1.65-2.25l4.07.27c-.59,1.95-1.65,3.51-3.17,4.67-1.53,1.17-3.39,1.75-5.59,1.75h0ZM300.49,69.47h10.34c-.15-1.74-.69-3.04-1.6-3.88s-2.05-1.27-3.44-1.27-2.61.43-3.54,1.31c-.92.87-1.51,2.15-1.77,3.84h.01Z" fill="#fff"/>
    <path d="M316.55,64.47v-3.27h7.38v3.27h-7.38ZM316.55,81.66v-3.27h15.45v3.27h-15.45ZM321.75,81.66v-20.45h3.07l.34,5.23-.34-.04c.26-1.77.81-3.07,1.65-3.92s2.01-1.27,3.5-1.27h4.34v3.39h-4.19c-.97,0-1.79.18-2.46.56-.67.37-1.17.92-1.52,1.65-.35.73-.52,1.63-.52,2.71v12.15h-3.88,0Z" fill="#fff"/>
    <path d="M344.54,82.12c-1.89,0-3.57-.44-5.02-1.33-1.45-.88-2.56-2.13-3.34-3.73-.78-1.6-1.17-3.48-1.17-5.63s.39-4.02,1.17-5.61,1.9-2.83,3.34-3.73c1.45-.89,3.12-1.34,5.02-1.34,1.56,0,2.96.29,4.19.87,1.23.58,2.24,1.42,3.04,2.52.8,1.1,1.32,2.42,1.58,3.96l-3.96.27c-.31-1.31-.88-2.3-1.73-3s-1.87-1.04-3.07-1.04c-1.72,0-3.07.63-4.06,1.9-.99,1.27-1.48,3.01-1.48,5.21s.49,3.94,1.48,5.21,2.34,1.9,4.06,1.9c1.23,0,2.29-.37,3.17-1.1s1.47-1.81,1.75-3.25l3.96.23c-.26,1.56-.8,2.91-1.61,4.05-.82,1.14-1.85,2.03-3.1,2.67s-2.65.96-4.21.96h-.01Z" fill="#fff"/>
    <path d="M353.15,81.66v-3.27h18.76v3.27h-18.76ZM361.15,81.66v-21.49c0-.79-.23-1.42-.67-1.86-.45-.45-1.07-.67-1.87-.67h-4.69v-3.27h5.11c1.97,0,3.47.51,4.48,1.52s1.52,2.51,1.52,4.48v21.3h-3.88,0Z" fill="#fff"/>
    <path d="M379.75,82.12c-1.28,0-2.43-.23-3.46-.69-1.02-.46-1.84-1.11-2.44-1.96s-.9-1.83-.9-2.96c0-1.74.53-3.1,1.6-4.07,1.06-.97,2.67-1.67,4.83-2.08l6.61-1.38c0-1.59-.34-2.78-1.04-3.58s-1.73-1.19-3.12-1.19c-1.28,0-2.28.29-3,.88s-1.2,1.41-1.46,2.46l-4.07-.27c.38-1.95,1.32-3.52,2.81-4.73,1.49-1.2,3.4-1.81,5.73-1.81,2.61,0,4.61.74,5.98,2.23,1.37,1.49,2.06,3.54,2.06,6.15v8.07c0,.46.1.79.31.98.2.19.5.29.88.29h1.15v3.19c-.15.02-.41.05-.75.08s-.69.04-1.02.04c-.92,0-1.71-.16-2.35-.46-.64-.31-1.12-.79-1.44-1.44-.32-.66-.51-1.48-.56-2.48h.61c-.15.9-.55,1.71-1.19,2.42-.64.72-1.46,1.28-2.46,1.69s-2.1.61-3.31.61h0ZM380.33,78.93c1.23,0,2.27-.22,3.12-.65.84-.44,1.48-1.05,1.9-1.85s.63-1.73.63-2.81v-1.58l-5.69,1.15c-1.23.23-2.09.59-2.58,1.08-.49.49-.73,1.13-.73,1.92,0,.85.29,1.51.88,2s1.41.73,2.46.73h.01Z" fill="#fff"/>
    <path d="M402.05,82.12c-1.82,0-3.38-.31-4.69-.92-1.31-.62-2.32-1.44-3.04-2.48s-1.13-2.2-1.23-3.48l3.96-.23c.2,1.1.72,1.98,1.54,2.63.82.65,1.98.98,3.5.98,1.41,0,2.48-.19,3.23-.58.74-.39,1.11-.99,1.11-1.81,0-.52-.13-.94-.38-1.29-.26-.34-.74-.64-1.44-.88s-1.73-.49-3.09-.75c-2.03-.38-3.61-.84-4.75-1.36-1.14-.53-1.96-1.19-2.44-2s-.73-1.79-.73-2.94.3-2.24.9-3.19,1.49-1.7,2.67-2.25c1.18-.55,2.64-.83,4.38-.83s3.32.31,4.5.94c1.18.63,2.1,1.44,2.77,2.44.67,1,1.09,2.09,1.27,3.27l-3.96.23c-.15-.67-.42-1.25-.81-1.75-.39-.5-.9-.9-1.54-1.19-.64-.3-1.38-.44-2.23-.44-1.36,0-2.36.27-3,.81s-.96,1.19-.96,1.96c0,.61.15,1.11.46,1.48s.82.68,1.54.92c.72.25,1.69.48,2.92.71,2.08.33,3.68.76,4.81,1.29s1.92,1.17,2.39,1.94c.46.77.69,1.72.69,2.84,0,1.23-.35,2.29-1.06,3.17s-1.68,1.56-2.92,2.04c-1.25.47-2.7.71-4.37.71h0Z" fill="#fff"/>
    <path d="M421.27,82.12c-1.82,0-3.38-.31-4.69-.92-1.31-.62-2.32-1.44-3.04-2.48s-1.13-2.2-1.23-3.48l3.96-.23c.2,1.1.72,1.98,1.54,2.63.82.65,1.98.98,3.5.98,1.41,0,2.48-.19,3.23-.58.74-.39,1.11-.99,1.11-1.81,0-.52-.13-.94-.38-1.29-.26-.34-.74-.64-1.44-.88s-1.73-.49-3.09-.75c-2.03-.38-3.61-.84-4.75-1.36-1.14-.53-1.96-1.19-2.44-2s-.73-1.79-.73-2.94.3-2.24.9-3.19,1.49-1.7,2.67-2.25c1.18-.55,2.64-.83,4.38-.83s3.32.31,4.5.94c1.18.63,2.1,1.44,2.77,2.44.67,1,1.09,2.09,1.27,3.27l-3.96.23c-.15-.67-.42-1.25-.81-1.75-.39-.5-.9-.9-1.54-1.19-.64-.3-1.38-.44-2.23-.44-1.36,0-2.36.27-3,.81s-.96,1.19-.96,1.96c0,.61.15,1.11.46,1.48s.82.68,1.54.92c.72.25,1.69.48,2.92.71,2.08.33,3.68.76,4.81,1.29s1.92,1.17,2.39,1.94c.46.77.69,1.72.69,2.84,0,1.23-.35,2.29-1.06,3.17s-1.68,1.56-2.92,2.04c-1.25.47-2.7.71-4.37.71h0Z" fill="#fff"/>
  </g>
</svg>